<svg xmlns="http://www.w3.org/2000/svg" enable-background="new 0 0 24 24" viewBox="0 0 24 24"><path d="M12,24C5.383,24,0,18.617,0,12S5.383,0,12,0s12,5.383,12,12S18.617,24,12,24z M12,1C5.935,1,1,5.935,1,12s4.935,11,11,11s11-4.935,11-11S18.065,1,12,1z"/><path d="M12 8c-.827 0-1.5-.673-1.5-1.5S11.173 5 12 5s1.5.673 1.5 1.5S12.827 8 12 8zM12 6c-.275 0-.5.224-.5.5S11.725 7 12 7s.5-.224.5-.5S12.275 6 12 6zM12 18c-.276 0-.5-.224-.5-.5V11h-1c-.276 0-.5-.224-.5-.5s.224-.5.5-.5H12c.276 0 .5.224.5.5v7C12.5 17.776 12.276 18 12 18z"/><path d="M14,18h-4c-0.276,0-0.5-0.224-0.5-0.5S9.724,17,10,17h4c0.276,0,0.5,0.224,0.5,0.5S14.276,18,14,18z"/></svg>